<svg xmlns="http://www.w3.org/2000/svg" aria-hidden="true" style="position:absolute;width:0;height:0;overflow:hidden"><defs><symbol id="icon-vector" viewBox="0 0 32 32"><path d="M14.909 29.818C6.691 29.818 0 23.127 0 14.909S6.691 0 14.909 0s14.909 6.691 14.909 14.909-6.691 14.909-14.909 14.909zm0-27.636c-7.025 0-12.727 5.716-12.727 12.727s5.702 12.727 12.727 12.727 12.727-5.716 12.727-12.727S21.934 2.182 14.909 2.182zM30.182 31.273a1.08 1.08 0 0 1-.771-.32l-2.909-2.909c-.422-.422-.422-1.12 0-1.542s1.12-.422 1.542 0l2.909 2.909c.422.422.422 1.12 0 1.542a1.08 1.08 0 0 1-.771.32z"/></symbol><symbol id="icon-heart" viewBox="0 0 32 32"><path d="M16 28.867c-.413 0-.813-.053-1.147-.173C9.76 26.947 1.666 20.747 1.666 11.587c0-4.667 3.773-8.453 8.413-8.453 2.253 0 4.36.88 5.92 2.453a8.287 8.287 0 0 1 5.92-2.453c4.64 0 8.413 3.8 8.413 8.453 0 9.173-8.093 15.36-13.187 17.107-.333.12-.733.173-1.147.173zM10.08 5.133c-3.533 0-6.413 2.893-6.413 6.453 0 9.107 8.76 14.173 11.84 15.227.24.08.76.08 1 0 3.067-1.053 11.84-6.107 11.84-15.227 0-3.56-2.88-6.453-6.413-6.453a6.334 6.334 0 0 0-5.12 2.587c-.373.507-1.227.507-1.6 0-1.24-1.653-3.107-2.587-5.133-2.587z"/></symbol><symbol id="icon-bag" viewBox="0 0 32 32"><path d="M6.92 8.507c-.253 0-.52-.107-.707-.293a1.005 1.005 0 0 1 0-1.413l4.84-4.84c.387-.387 1.027-.387 1.413 0s.387 1.027 0 1.413l-4.84 4.84c-.2.187-.453.293-.707.293zM25.08 8.507a.99.99 0 0 1-.707-.293l-4.84-4.84c-.387-.387-.387-1.027 0-1.413s1.027-.387 1.413 0l4.84 4.84a1.005 1.005 0 0 1 0 1.413 1.021 1.021 0 0 1-.707.293z"/><path d="M26.947 14.133H5.334c-.933.013-2 .013-2.773-.76-.613-.6-.893-1.533-.893-2.907 0-3.667 2.68-3.667 3.96-3.667h20.747c1.28 0 3.96 0 3.96 3.667 0 1.387-.28 2.307-.893 2.907-.693.693-1.627.76-2.493.76zm-21.32-2H26.68c.6.013 1.16.013 1.347-.173.093-.093.293-.413.293-1.493 0-1.507-.373-1.667-1.96-1.667H5.627c-1.587 0-1.96.16-1.96 1.667 0 1.08.213 1.4.293 1.493.187.173.76.173 1.347.173h.32zM13.013 24.4c-.547 0-1-.453-1-1v-4.733c0-.547.453-1 1-1s1 .453 1 1V23.4c0 .56-.453 1-1 1zM19.147 24.4c-.547 0-1-.453-1-1v-4.733c0-.547.453-1 1-1s1 .453 1 1V23.4c0 .56-.453 1-1 1z"/><path d="M19.853 30.333h-8.04c-4.773 0-5.84-2.84-6.253-5.307L3.68 13.493c-.093-.547.28-1.053.827-1.147s1.053.28 1.147.827l1.88 11.52c.387 2.36 1.187 3.64 4.28 3.64h8.04c3.427 0 3.813-1.2 4.253-3.52l2.24-11.667a.983.983 0 0 1 1.173-.787.993.993 0 0 1 .787 1.173l-2.24 11.667c-.52 2.707-1.387 5.133-6.213 5.133z"/></symbol></defs><defs><symbol id="icon-rating" viewBox="0 0 155 32"><path d="m15.406 23.977-4.617 2.536c-.624.343-1.395.092-1.723-.56a1.379 1.379 0 0 1-.128-.846l.882-5.372a1.37 1.37 0 0 0-.367-1.18L5.718 14.75a1.375 1.375 0 0 1-.023-1.885c.196-.21.452-.347.73-.389l5.162-.784a1.28 1.28 0 0 0 .96-.729l2.308-4.888c.312-.66 1.077-.931 1.709-.605.252.13.455.343.579.605l2.308 4.888c.186.393.545.666.96.729l5.162.784c.697.106 1.18.782 1.079 1.511-.04.29-.171.558-.372.763l-3.735 3.805a1.37 1.37 0 0 0-.367 1.18l.882 5.372c.119.726-.347 1.415-1.042 1.539-.276.05-.561.003-.809-.134l-4.617-2.536a1.228 1.228 0 0 0-1.187 0zM47.406 23.977l-4.617 2.536c-.623.343-1.395.092-1.723-.56a1.379 1.379 0 0 1-.128-.846l.882-5.372a1.37 1.37 0 0 0-.367-1.18l-3.735-3.805a1.375 1.375 0 0 1-.023-1.885c.196-.21.453-.347.73-.389l5.162-.784c.415-.063.775-.336.961-.729l2.308-4.888c.312-.66 1.077-.931 1.709-.605.251.13.455.343.579.605l2.309 4.888c.186.393.545.666.961.729l5.162.784c.697.106 1.18.782 1.079 1.511a1.36 1.36 0 0 1-.372.763l-3.735 3.805a1.37 1.37 0 0 0-.367 1.18l.882 5.372c.119.726-.347 1.415-1.042 1.539a1.22 1.22 0 0 1-.809-.134l-4.617-2.536a1.228 1.228 0 0 0-1.187 0zM79.406 23.977l-4.617 2.536c-.623.343-1.395.092-1.723-.56a1.379 1.379 0 0 1-.128-.846l.882-5.372a1.37 1.37 0 0 0-.367-1.18l-3.735-3.805a1.375 1.375 0 0 1-.023-1.885c.196-.21.453-.347.73-.389l5.162-.784c.415-.063.775-.336.961-.729l2.308-4.888c.312-.66 1.077-.931 1.709-.605.251.13.455.343.579.605l2.309 4.888c.186.393.545.666.961.729l5.162.784c.697.106 1.18.782 1.079 1.511a1.36 1.36 0 0 1-.372.763l-3.735 3.805a1.37 1.37 0 0 0-.367 1.18l.882 5.372c.119.726-.347 1.415-1.042 1.539a1.22 1.22 0 0 1-.809-.134l-4.617-2.536a1.228 1.228 0 0 0-1.187 0zM143.406 23.977l-4.617 2.536c-.623.343-1.395.092-1.723-.56a1.379 1.379 0 0 1-.128-.846l.882-5.372a1.37 1.37 0 0 0-.367-1.18l-3.735-3.805a1.375 1.375 0 0 1-.023-1.885c.196-.21.453-.347.73-.389l5.162-.784c.415-.063.775-.336.961-.729l2.308-4.888c.312-.66 1.077-.931 1.709-.605.251.13.455.343.579.605l2.309 4.888c.186.393.545.666.961.729l5.162.784c.697.106 1.18.782 1.079 1.511a1.36 1.36 0 0 1-.372.763l-3.735 3.805a1.37 1.37 0 0 0-.367 1.18l.882 5.372c.119.726-.347 1.415-1.042 1.539a1.22 1.22 0 0 1-.809-.134l-4.617-2.536a1.228 1.228 0 0 0-1.187 0zm-1.027-1.87a3.36 3.36 0 0 1 3.242 0l3.062 1.682-.609-3.708c-.181-1.1.17-2.225.95-3.02l2.663-2.713-3.595-.546a3.414 3.414 0 0 1-2.569-1.927L144 8.65l-1.523 3.225a3.412 3.412 0 0 1-2.569 1.927l-3.595.546 2.663 2.713c.78.795 1.13 1.92.95 3.02l-.609 3.708 3.062-1.682zM111.406 23.977l-4.617 2.536c-.623.343-1.395.092-1.723-.56a1.379 1.379 0 0 1-.128-.846l.882-5.372a1.37 1.37 0 0 0-.367-1.18l-3.735-3.805a1.375 1.375 0 0 1-.023-1.885c.196-.21.453-.347.73-.389l5.162-.784c.415-.063.775-.336.961-.729l2.308-4.888c.312-.66 1.077-.931 1.709-.605.251.13.455.343.579.605l2.309 4.888c.186.393.545.666.961.729l5.162.784c.697.106 1.18.782 1.079 1.511a1.36 1.36 0 0 1-.372.763l-3.735 3.805a1.37 1.37 0 0 0-.367 1.18l.882 5.372c.119.726-.347 1.415-1.042 1.539a1.22 1.22 0 0 1-.809-.134l-4.617-2.536a1.228 1.228 0 0 0-1.187 0z"/></symbol></defs></svg>